<svg width="152" height="33" viewBox="0 0 152 33" fill="none" xmlns="http://www.w3.org/2000/svg">
<path d="M29.7689 13.65H15.6394V17.745H25.6703C25.1618 23.46 20.2774 25.905 15.6549 25.905C9.75347 25.905 4.57627 21.375 4.57627 15C4.57627 8.85 9.50693 4.095 15.6703 4.095C20.4314 4.095 23.2203 7.05 23.2203 7.05L26.1479 4.08C26.1479 4.08 22.3883 0 15.5162 0C6.76425 0 0 7.2 0 15C0 22.575 6.36364 30 15.7473 30C23.9908 30 30 24.495 30 16.365C30 14.64 29.7689 13.65 29.7689 13.65Z" fill="#B70D0D"/>
<path d="M75.4697 0.0800781C67.2197 0.0800781 60.4697 6.84213 60.4697 15.1704C60.4697 22.7006 65.9597 28.9506 73.1297 30.0801V19.5379H69.3197V15.1704H73.1297V11.8421C73.1297 8.06201 75.3647 5.98369 78.7997 5.98369C80.4347 5.98369 82.1447 6.26984 82.1447 6.26984V9.98972H80.2547C78.3947 9.98972 77.8097 11.1494 77.8097 12.3391V15.1704H81.9797L81.3047 19.5379H77.8097V30.0801C81.3444 29.5196 84.563 27.7089 86.8846 24.9747C89.2062 22.2406 90.4777 18.7633 90.4697 15.1704C90.4697 6.84213 83.7197 0.0800781 75.4697 0.0800781Z" fill="#2255B7"/>
<path d="M151.47 6.52941C150.366 7.14706 149.175 7.55294 147.942 7.74706C149.204 6.81176 150.179 5.32941 150.638 3.54706C149.448 4.42941 148.128 5.04706 146.737 5.4C145.605 3.88235 144.013 3 142.206 3C138.836 3 136.083 6.38824 136.083 10.5706C136.083 11.1706 136.14 11.7529 136.24 12.3C131.135 11.9824 126.589 8.96471 123.563 4.39412C123.033 5.50588 122.732 6.81176 122.732 8.18824C122.732 10.8176 123.807 13.1471 125.471 14.4706C124.453 14.4706 123.506 14.1176 122.674 13.5882C122.674 13.5882 122.674 13.5882 122.674 13.6412C122.674 17.3118 124.797 20.3824 127.607 21.0706C127.091 21.2471 126.546 21.3353 125.987 21.3353C125.6 21.3353 125.213 21.2824 124.84 21.1941C125.614 24.1765 127.866 26.4 130.576 26.4529C128.482 28.5 125.829 29.7 122.932 29.7C122.445 29.7 121.957 29.6647 121.47 29.5941C124.194 31.7471 127.435 33 130.906 33C142.206 33 148.415 21.4588 148.415 11.4529C148.415 11.1176 148.415 10.8 148.401 10.4647C149.605 9.40588 150.638 8.06471 151.47 6.52941Z" fill="#2C84D5"/>
</svg>
