<svg width="188" height="110" viewBox="0 0 188 110" fill="none" xmlns="http://www.w3.org/2000/svg">
<g filter="url(#filter0_d_247_581)">
<path d="M4 8C4 3.58172 7.58172 0 12 0H176C180.418 0 184 3.58172 184 8V94C184 98.4183 180.418 102 176 102H12C7.58172 102 4 98.4183 4 94V8Z" fill="#000AFF" fill-opacity="0.5" shape-rendering="crispEdges"/>
<path d="M12 0.5H176C180.142 0.5 183.5 3.85786 183.5 8V94C183.5 98.1421 180.142 101.5 176 101.5H12C7.85786 101.5 4.5 98.1421 4.5 94V8C4.5 3.85786 7.85786 0.5 12 0.5Z" stroke="#000AFF" stroke-opacity="0.9" shape-rendering="crispEdges"/>
</g>
<defs>
<filter id="filter0_d_247_581" x="0" y="0" width="188" height="110" filterUnits="userSpaceOnUse" color-interpolation-filters="sRGB">
<feFlood flood-opacity="0" result="BackgroundImageFix"/>
<feColorMatrix in="SourceAlpha" type="matrix" values="0 0 0 0 0 0 0 0 0 0 0 0 0 0 0 0 0 0 127 0" result="hardAlpha"/>
<feOffset dy="4"/>
<feGaussianBlur stdDeviation="2"/>
<feComposite in2="hardAlpha" operator="out"/>
<feColorMatrix type="matrix" values="0 0 0 0 0 0 0 0 0 0 0 0 0 0 0 0 0 0 0.25 0"/>
<feBlend mode="normal" in2="BackgroundImageFix" result="effect1_dropShadow_247_581"/>
<feBlend mode="normal" in="SourceGraphic" in2="effect1_dropShadow_247_581" result="shape"/>
</filter>
</defs>
</svg>
