<svg width="205" height="53" viewBox="0 0 205 53" fill="none" xmlns="http://www.w3.org/2000/svg">
<g filter="url(#filter0_d_241_100)">
<path d="M5 22.5C5 10.6259 14.6259 1 26.5 1H178.5C190.374 1 200 10.6259 200 22.5V22.5C200 34.3741 190.374 44 178.5 44H26.5C14.6259 44 5 34.3741 5 22.5V22.5Z" fill="#000AFF"/>
<path d="M5 22.5C5 10.6259 14.6259 1 26.5 1H178.5C190.374 1 200 10.6259 200 22.5V22.5C200 34.3741 190.374 44 178.5 44H26.5C14.6259 44 5 34.3741 5 22.5V22.5Z" stroke="#000AFF"/>
</g>
<defs>
<filter id="filter0_d_241_100" x="0.5" y="0.5" width="204" height="52" filterUnits="userSpaceOnUse" color-interpolation-filters="sRGB">
<feFlood flood-opacity="0" result="BackgroundImageFix"/>
<feColorMatrix in="SourceAlpha" type="matrix" values="0 0 0 0 0 0 0 0 0 0 0 0 0 0 0 0 0 0 127 0" result="hardAlpha"/>
<feOffset dy="4"/>
<feGaussianBlur stdDeviation="2"/>
<feComposite in2="hardAlpha" operator="out"/>
<feColorMatrix type="matrix" values="0 0 0 0 0 0 0 0 0 0 0 0 0 0 0 0 0 0 0.25 0"/>
<feBlend mode="normal" in2="BackgroundImageFix" result="effect1_dropShadow_241_100"/>
<feBlend mode="normal" in="SourceGraphic" in2="effect1_dropShadow_241_100" result="shape"/>
</filter>
</defs>
</svg>
