<svg width="121" height="49" viewBox="0 0 121 49" fill="none" xmlns="http://www.w3.org/2000/svg">
<g filter="url(#filter0_d_244_514)">
<path d="M5 11C5 5.47715 9.47715 1 15 1H106C111.523 1 116 5.47715 116 11V30C116 35.5228 111.523 40 106 40H15C9.47715 40 5 35.5228 5 30V11Z" fill="#000AFF" fill-opacity="0.4" shape-rendering="crispEdges"/>
<path d="M5 11C5 5.47715 9.47715 1 15 1H106C111.523 1 116 5.47715 116 11V30C116 35.5228 111.523 40 106 40H15C9.47715 40 5 35.5228 5 30V11Z" stroke="#000AFF" shape-rendering="crispEdges"/>
</g>
<defs>
<filter id="filter0_d_244_514" x="0.5" y="0.5" width="120" height="48" filterUnits="userSpaceOnUse" color-interpolation-filters="sRGB">
<feFlood flood-opacity="0" result="BackgroundImageFix"/>
<feColorMatrix in="SourceAlpha" type="matrix" values="0 0 0 0 0 0 0 0 0 0 0 0 0 0 0 0 0 0 127 0" result="hardAlpha"/>
<feOffset dy="4"/>
<feGaussianBlur stdDeviation="2"/>
<feComposite in2="hardAlpha" operator="out"/>
<feColorMatrix type="matrix" values="0 0 0 0 0 0 0 0 0 0 0 0 0 0 0 0 0 0 0.25 0"/>
<feBlend mode="normal" in2="BackgroundImageFix" result="effect1_dropShadow_244_514"/>
<feBlend mode="normal" in="SourceGraphic" in2="effect1_dropShadow_244_514" result="shape"/>
</filter>
</defs>
</svg>
