<svg width="197" height="47" viewBox="0 0 197 47" fill="none" xmlns="http://www.w3.org/2000/svg">
<g filter="url(#filter0_d_147_18)">
<path d="M5 19.5C5 9.28273 13.2827 1 23.5 1H173.5C183.717 1 192 9.28273 192 19.5V19.5C192 29.7173 183.717 38 173.5 38H23.5C13.2827 38 5 29.7173 5 19.5V19.5Z" fill="#000AFF"/>
<path d="M5 19.5C5 9.28273 13.2827 1 23.5 1H173.5C183.717 1 192 9.28273 192 19.5V19.5C192 29.7173 183.717 38 173.5 38H23.5C13.2827 38 5 29.7173 5 19.5V19.5Z" stroke="#000AFF"/>
</g>
<defs>
<filter id="filter0_d_147_18" x="0.5" y="0.5" width="196" height="46" filterUnits="userSpaceOnUse" color-interpolation-filters="sRGB">
<feFlood flood-opacity="0" result="BackgroundImageFix"/>
<feColorMatrix in="SourceAlpha" type="matrix" values="0 0 0 0 0 0 0 0 0 0 0 0 0 0 0 0 0 0 127 0" result="hardAlpha"/>
<feOffset dy="4"/>
<feGaussianBlur stdDeviation="2"/>
<feComposite in2="hardAlpha" operator="out"/>
<feColorMatrix type="matrix" values="0 0 0 0 0 0 0 0 0 0 0 0 0 0 0 0 0 0 0.25 0"/>
<feBlend mode="normal" in2="BackgroundImageFix" result="effect1_dropShadow_147_18"/>
<feBlend mode="normal" in="SourceGraphic" in2="effect1_dropShadow_147_18" result="shape"/>
</filter>
</defs>
</svg>
