<svg width="36" height="29" viewBox="0 0 36 29" fill="none" xmlns="http://www.w3.org/2000/svg">
<path d="M18.1387 0C20.4925 0 22.7499 0.763837 24.4142 2.12348C26.0786 3.48311 27.0137 5.32718 27.0137 7.25C27.0137 9.17282 26.0786 11.0169 24.4142 12.3765C22.7499 13.7362 20.4925 14.5 18.1387 14.5C15.7849 14.5 13.5275 13.7362 11.8631 12.3765C10.1987 11.0169 9.26367 9.17282 9.26367 7.25C9.26367 5.32718 10.1987 3.48311 11.8631 2.12348C13.5275 0.763837 15.7849 0 18.1387 0ZM18.1387 18.125C27.9455 18.125 35.8887 21.3694 35.8887 25.375V29H0.388672V25.375C0.388672 21.3694 8.3318 18.125 18.1387 18.125Z" fill="black"/>
</svg>
