<svg width="36" height="35" viewBox="0 0 36 35" fill="none" xmlns="http://www.w3.org/2000/svg">
<path d="M17.8193 0.979492C20.1731 0.979492 22.4305 1.85445 24.0949 3.41188C25.7593 4.96931 26.6943 7.08165 26.6943 9.28419C26.6943 11.4867 25.7593 13.5991 24.0949 15.1565C22.4305 16.7139 20.1731 17.5889 17.8193 17.5889C15.4655 17.5889 13.2081 16.7139 11.5438 15.1565C9.87938 13.5991 8.94434 11.4867 8.94434 9.28419C8.94434 7.08165 9.87938 4.96931 11.5438 3.41188C13.2081 1.85445 15.4655 0.979492 17.8193 0.979492ZM17.8193 21.7412C27.6262 21.7412 35.5693 25.4576 35.5693 30.0459V34.1983H0.0693359V30.0459C0.0693359 25.4576 8.01246 21.7412 17.8193 21.7412Z" fill="black"/>
</svg>
