<svg width="23" height="21" viewBox="0 0 23 21" fill="none" xmlns="http://www.w3.org/2000/svg">
<path d="M20.3057 17V18H2.55572V17L4.52794 15V9C4.52794 5.9 6.52975 3.17 9.4585 2.29C9.4585 2.19 9.4585 2.1 9.4585 2C9.4585 1.46957 9.66628 0.960859 10.0361 0.585786C10.406 0.210714 10.9077 0 11.4307 0C11.9538 0 12.4554 0.210714 12.8253 0.585786C13.1952 0.960859 13.4029 1.46957 13.4029 2C13.4029 2.1 13.4029 2.19 13.4029 2.29C16.3317 3.17 18.3335 5.9 18.3335 9V15L20.3057 17ZM13.4029 19C13.4029 19.5304 13.1952 20.0391 12.8253 20.4142C12.4554 20.7893 11.9538 21 11.4307 21C10.9077 21 10.406 20.7893 10.0361 20.4142C9.66628 20.0391 9.4585 19.5304 9.4585 19M19.0731 1.19L17.6728 2.61C19.3591 4.3 20.3057 6.6 20.3057 9H22.2779C22.2779 6.07 21.1341 3.25 19.0731 1.19ZM0.583496 9H2.55572C2.55572 6.6 3.50239 4.3 5.18864 2.61L3.78836 1.19C1.72739 3.25 0.583496 6.07 0.583496 9Z" fill="#979797"/>
</svg>
