<svg width="42" height="37" viewBox="0 0 42 37" fill="none" xmlns="http://www.w3.org/2000/svg">
<g filter="url(#filter0_d_95_186)">
<path d="M24.1875 7.45714C27.8508 7.45714 31.3641 8.59199 33.9544 10.612C36.5448 12.6321 38 15.3718 38 18.2286C38 21.0853 36.5448 23.8251 33.9544 25.8451C31.3641 27.8652 27.8508 29 24.1875 29H16.75V25.6857H24.1875C29.5 25.6857 33.75 22.3714 33.75 18.2286C33.75 14.0857 29.5 10.7714 24.1875 10.7714H12.1388L18.6838 15.892L15.6875 18.2286L4 9.11429L15.6875 0L18.705 2.33657L12.1388 7.45714H24.1875ZM8.25 25.6857H12.5V29H8.25V25.6857Z" fill="white"/>
</g>
<defs>
<filter id="filter0_d_95_186" x="0" y="0" width="42" height="37" filterUnits="userSpaceOnUse" color-interpolation-filters="sRGB">
<feFlood flood-opacity="0" result="BackgroundImageFix"/>
<feColorMatrix in="SourceAlpha" type="matrix" values="0 0 0 0 0 0 0 0 0 0 0 0 0 0 0 0 0 0 127 0" result="hardAlpha"/>
<feOffset dy="4"/>
<feGaussianBlur stdDeviation="2"/>
<feComposite in2="hardAlpha" operator="out"/>
<feColorMatrix type="matrix" values="0 0 0 0 0 0 0 0 0 0 0 0 0 0 0 0 0 0 0.25 0"/>
<feBlend mode="normal" in2="BackgroundImageFix" result="effect1_dropShadow_95_186"/>
<feBlend mode="normal" in="SourceGraphic" in2="effect1_dropShadow_95_186" result="shape"/>
</filter>
</defs>
</svg>
