<svg width="42" height="21" viewBox="0 0 42 21" fill="none" xmlns="http://www.w3.org/2000/svg">
<path d="M20.944 0.971191C23.6549 0.971191 26.2547 1.48073 28.1716 2.3877C30.0884 3.29468 31.1653 4.52481 31.1653 5.80747C31.1653 7.09013 30.0884 8.32026 28.1716 9.22724C26.2547 10.1342 23.6549 10.6437 20.944 10.6437C18.2332 10.6437 15.6334 10.1342 13.7165 9.22724C11.7996 8.32026 10.7227 7.09013 10.7227 5.80747C10.7227 4.52481 11.7996 3.29468 13.7165 2.3877C15.6334 1.48073 18.2332 0.971191 20.944 0.971191ZM20.944 13.0619C32.2385 13.0619 41.3866 15.2261 41.3866 17.8982V20.3163H0.501465V17.8982C0.501465 15.2261 9.64951 13.0619 20.944 13.0619Z" fill="black"/>
</svg>
