<svg width="40" height="40" viewBox="0 0 40 40" fill="none" xmlns="http://www.w3.org/2000/svg">
<path d="M20 0C8.94 0 0 9 0 20C0 31 8.94 40 20 40C31 40 40 31 40 20C40 9 31 0 20 0ZM20 36C11.16 36 4 28.84 4 20C4 11.16 11.16 4 20 4C28.84 4 36 11.16 36 20C36 28.84 28.84 36 20 36ZM27 18C28.66 18 30 16.66 30 15C30 13.34 28.66 12 27 12C25.34 12 24 13.34 24 15C24 16.66 25.34 18 27 18ZM13 18C14.66 18 16 16.66 16 15C16 13.34 14.66 12 13 12C11.34 12 10 13.34 10 15C10 16.66 11.34 18 13 18ZM20 23C15.34 23 11.38 25.92 9.78 30H30.22C28.62 25.92 24.66 23 20 23Z" fill="black"/>
</svg>
