<svg width="22" height="21" viewBox="0 0 22 21" fill="none" xmlns="http://www.w3.org/2000/svg">
<path d="M19.7222 17V18H1.97222V17L3.94444 15V9C3.94444 5.9 5.94625 3.17 8.875 2.29C8.875 2.19 8.875 2.1 8.875 2C8.875 1.46957 9.08279 0.960859 9.45265 0.585786C9.82251 0.210714 10.3242 0 10.8472 0C11.3703 0 11.8719 0.210714 12.2418 0.585786C12.6117 0.960859 12.8194 1.46957 12.8194 2C12.8194 2.1 12.8194 2.19 12.8194 2.29C15.7482 3.17 17.75 5.9 17.75 9V15L19.7222 17ZM12.8194 19C12.8194 19.5304 12.6117 20.0391 12.2418 20.4142C11.8719 20.7893 11.3703 21 10.8472 21C10.3242 21 9.82251 20.7893 9.45265 20.4142C9.08279 20.0391 8.875 19.5304 8.875 19M18.4896 1.19L17.0893 2.61C18.7756 4.3 19.7222 6.6 19.7222 9H21.6944C21.6944 6.07 20.5506 3.25 18.4896 1.19ZM0 9H1.97222C1.97222 6.6 2.91889 4.3 4.60514 2.61L3.20486 1.19C1.14389 3.25 0 6.07 0 9Z" fill="#979797"/>
</svg>
