<svg width="35" height="35" viewBox="0 0 35 35" fill="none" xmlns="http://www.w3.org/2000/svg">
<path d="M31.8182 28.3333V30H3.18182V28.3333L6.36364 25V15C6.36364 9.83333 9.59318 5.28333 14.3182 3.81667C14.3182 3.65 14.3182 3.5 14.3182 3.33333C14.3182 2.44928 14.6534 1.60143 15.2501 0.976311C15.8468 0.351189 16.6561 0 17.5 0C18.3439 0 19.1532 0.351189 19.7499 0.976311C20.3466 1.60143 20.6818 2.44928 20.6818 3.33333C20.6818 3.5 20.6818 3.65 20.6818 3.81667C25.4068 5.28333 28.6364 9.83333 28.6364 15V25L31.8182 28.3333ZM20.6818 31.6667C20.6818 32.5507 20.3466 33.3986 19.7499 34.0237C19.1532 34.6488 18.3439 35 17.5 35C16.6561 35 15.8468 34.6488 15.2501 34.0237C14.6534 33.3986 14.3182 32.5507 14.3182 31.6667M29.8295 1.98333L27.5705 4.35C30.2909 7.16667 31.8182 11 31.8182 15H35C35 10.1167 33.1545 5.41667 29.8295 1.98333ZM0 15H3.18182C3.18182 11 4.70909 7.16667 7.42955 4.35L5.17045 1.98333C1.84545 5.41667 0 10.1167 0 15Z" fill="#979797"/>
</svg>
