<svg width="36" height="29" viewBox="0 0 36 29" fill="none" xmlns="http://www.w3.org/2000/svg">
<path d="M17.75 0C20.1038 0 22.3612 0.763837 24.0256 2.12348C25.69 3.48311 26.625 5.32718 26.625 7.25C26.625 9.17282 25.69 11.0169 24.0256 12.3765C22.3612 13.7362 20.1038 14.5 17.75 14.5C15.3962 14.5 13.1388 13.7362 11.4744 12.3765C9.81004 11.0169 8.875 9.17282 8.875 7.25C8.875 5.32718 9.81004 3.48311 11.4744 2.12348C13.1388 0.763837 15.3962 0 17.75 0ZM17.75 18.125C27.5569 18.125 35.5 21.3694 35.5 25.375V29H0V25.375C0 21.3694 7.94312 18.125 17.75 18.125Z" fill="black"/>
</svg>
