<svg width="18" height="18" viewBox="0 0 18 18" fill="none" xmlns="http://www.w3.org/2000/svg">
<path d="M14.25 9C14.25 9.23 14.23 9.46 14.2 9.68L15.68 10.84C15.81 10.95 15.85 11.13 15.76 11.29L14.36 13.71C14.27 13.86 14.09 13.92 13.93 13.86L12.19 13.16C11.83 13.44 11.43 13.67 11 13.85L10.75 15.7C10.72 15.87 10.57 16 10.4 16H7.6C7.43 16 7.28 15.87 7.25 15.7L7 13.85C6.56 13.67 6.17 13.44 5.81 13.16L4.07 13.86C3.91 13.92 3.73 13.86 3.64 13.71L2.24 11.29C2.15 11.13 2.19 10.95 2.32 10.84L3.8 9.68C3.77 9.46 3.75 9.23 3.75 9C3.75 8.77 3.77 8.54 3.8 8.32L2.32 7.16C2.19 7.05 2.15 6.86 2.24 6.71L3.64 4.29C3.73 4.13 3.91 4.07 4.07 4.13L5.81 4.84C6.17 4.56 6.56 4.32 7 4.15L7.25 2.29C7.28 2.13 7.43 2 7.6 2H10.4C10.57 2 10.72 2.13 10.75 2.29L11 4.15C11.43 4.32 11.83 4.56 12.19 4.84L13.93 4.13C14.09 4.07 14.27 4.13 14.36 4.29L15.76 6.71C15.85 6.86 15.81 7.05 15.68 7.16L14.2 8.32C14.23 8.54 14.25 8.77 14.25 9ZM16 0H2C0.89 0 0 0.89 0 2V16C0 16.5304 0.210714 17.0391 0.585786 17.4142C0.960859 17.7893 1.46957 18 2 18H16C16.5304 18 17.0391 17.7893 17.4142 17.4142C17.7893 17.0391 18 16.5304 18 16V2C18 0.89 17.1 0 16 0ZM9 7C7.89 7 7 7.89 7 9C7 9.53043 7.21071 10.0391 7.58579 10.4142C7.96086 10.7893 8.46957 11 9 11C9.53043 11 10.0391 10.7893 10.4142 10.4142C10.7893 10.0391 11 9.53043 11 9C11 7.89 10.1 7 9 7Z" fill="black"/>
</svg>
