<svg width="23" height="25" viewBox="0 0 23 25" fill="none" xmlns="http://www.w3.org/2000/svg">
<path d="M20.4029 19.5002V20.6457H2.65289V19.5002L4.62511 17.2092V10.3364C4.62511 6.7854 6.62691 3.65826 9.55566 2.65024C9.55566 2.53569 9.55566 2.4326 9.55566 2.31805C9.55566 1.71045 9.76345 1.12774 10.1333 0.698103C10.5032 0.268467 11.0048 0.0270996 11.5279 0.0270996C12.051 0.0270996 12.5526 0.268467 12.9225 0.698103C13.2923 1.12774 13.5001 1.71045 13.5001 2.31805C13.5001 2.4326 13.5001 2.53569 13.5001 2.65024C16.4289 3.65826 18.4307 6.7854 18.4307 10.3364V17.2092L20.4029 19.5002ZM13.5001 21.7911C13.5001 22.3987 13.2923 22.9814 12.9225 23.4111C12.5526 23.8407 12.051 24.0821 11.5279 24.0821C11.0048 24.0821 10.5032 23.8407 10.1333 23.4111C9.76345 22.9814 9.55566 22.3987 9.55566 21.7911M19.1702 1.39022L17.77 3.01679C19.4562 4.95264 20.4029 7.58724 20.4029 10.3364H22.3751C22.3751 6.98014 21.2312 3.74989 19.1702 1.39022ZM0.680664 10.3364H2.65289C2.65289 7.58724 3.59955 4.95264 5.2858 3.01679L3.88553 1.39022C1.82455 3.74989 0.680664 6.98014 0.680664 10.3364Z" fill="#979797"/>
</svg>
