<svg width="37" height="29" viewBox="0 0 37 29" fill="none" xmlns="http://www.w3.org/2000/svg">
<path d="M18.7222 0C21.076 0 23.3334 0.763837 24.9977 2.12348C26.6621 3.48311 27.5972 5.32718 27.5972 7.25C27.5972 9.17282 26.6621 11.0169 24.9977 12.3765C23.3334 13.7362 21.076 14.5 18.7222 14.5C16.3684 14.5 14.111 13.7362 12.4466 12.3765C10.7822 11.0169 9.84717 9.17282 9.84717 7.25C9.84717 5.32718 10.7822 3.48311 12.4466 2.12348C14.111 0.763837 16.3684 0 18.7222 0ZM18.7222 18.125C28.529 18.125 36.4722 21.3694 36.4722 25.375V29H0.972168V25.375C0.972168 21.3694 8.91529 18.125 18.7222 18.125Z" fill="black"/>
</svg>
