<svg width="40" height="40" viewBox="0 0 40 40" fill="none" xmlns="http://www.w3.org/2000/svg">
<path d="M20 0C8.94 0 0 8.94 0 20C0 31.06 8.94 40 20 40C25.3043 40 30.3914 37.8929 34.1421 34.1421C37.8929 30.3914 40 25.3043 40 20C40 8.94 31 0 20 0ZM20 36C15.7565 36 11.6869 34.3143 8.68629 31.3137C5.68571 28.3131 4 24.2435 4 20C4 15.7565 5.68571 11.6869 8.68629 8.68629C11.6869 5.68571 15.7565 4 20 4C24.2435 4 28.3131 5.68571 31.3137 8.68629C34.3143 11.6869 36 15.7565 36 20C36 24.2435 34.3143 28.3131 31.3137 31.3137C28.3131 34.3143 24.2435 36 20 36ZM22 15.88L24.12 18L26.24 15.88L28.36 18L30.48 15.88L26.24 11.64L22 15.88ZM13.76 15.88L15.88 18L18 15.88L13.76 11.64L9.52 15.88L11.64 18L13.76 15.88ZM20 31C24.66 31 28.62 28.08 30.22 24H9.78C11.38 28.08 15.34 31 20 31Z" fill="black"/>
</svg>
