<svg width="150" height="150" viewBox="0 0 150 150" fill="none" xmlns="http://www.w3.org/2000/svg">
<path d="M75 0C84.9456 0 94.4839 3.95088 101.517 10.9835C108.549 18.0161 112.5 27.5544 112.5 37.5C112.5 47.4456 108.549 56.9839 101.517 64.0165C94.4839 71.0491 84.9456 75 75 75C65.0544 75 55.5161 71.0491 48.4835 64.0165C41.4509 56.9839 37.5 47.4456 37.5 37.5C37.5 27.5544 41.4509 18.0161 48.4835 10.9835C55.5161 3.95088 65.0544 0 75 0ZM75 93.75C116.438 93.75 150 110.531 150 131.25V150H0V131.25C0 110.531 33.5625 93.75 75 93.75Z" fill="black"/>
</svg>
