<svg width="40" height="40" viewBox="0 0 40 40" fill="none" xmlns="http://www.w3.org/2000/svg">
<path d="M36 20C36 15.7565 34.3143 11.6869 31.3137 8.68629C28.3131 5.68571 24.2435 4 20 4C15.7565 4 11.6869 5.68571 8.68629 8.68629C5.68571 11.6869 4 15.7565 4 20C4 24.2435 5.68571 28.3131 8.68629 31.3137C11.6869 34.3143 15.7565 36 20 36C24.2435 36 28.3131 34.3143 31.3137 31.3137C34.3143 28.3131 36 24.2435 36 20ZM40 20C40 25.3043 37.8929 30.3914 34.1421 34.1421C30.3914 37.8929 25.3043 40 20 40C17.3736 40 14.7728 39.4827 12.3463 38.4776C9.91982 37.4725 7.71504 35.9993 5.85786 34.1421C2.10714 30.3914 0 25.3043 0 20C0 14.6957 2.10714 9.60859 5.85786 5.85786C9.60859 2.10714 14.6957 0 20 0C22.6264 0 25.2272 0.517315 27.6537 1.52241C30.0802 2.5275 32.285 4.00069 34.1421 5.85786C35.9993 7.71504 37.4725 9.91982 38.4776 12.3463C39.4827 14.7728 40 17.3736 40 20ZM16 15C16 16.6 14.6 18 13 18C11.4 18 10 16.6 10 15C10 13.4 11.4 12 13 12C14.6 12 16 13.4 16 15ZM30 15C30 16.6 28.6 18 27 18C25.4 18 24 16.6 24 15C24 13.4 25.4 12 27 12C28.6 12 30 13.4 30 15ZM20 30.46C16.5 30.46 13.42 29 11.62 26.84L14.46 24C15.36 25.44 17.5 26.46 20 26.46C22.5 26.46 24.64 25.44 25.54 24L28.38 26.84C26.58 29 23.5 30.46 20 30.46Z" fill="black"/>
</svg>
