<svg width="69" height="33" viewBox="0 0 69 33" fill="none" xmlns="http://www.w3.org/2000/svg">
<path d="M34.118 0.148193C38.6294 0.148193 42.9561 0.996169 46.1462 2.50558C49.3363 4.01498 51.1284 6.06218 51.1284 8.1968C51.1284 10.3314 49.3363 12.3786 46.1462 13.888C42.9561 15.3974 38.6294 16.2454 34.118 16.2454C29.6066 16.2454 25.2799 15.3974 22.0898 13.888C18.8997 12.3786 17.1076 10.3314 17.1076 8.1968C17.1076 6.06218 18.8997 4.01498 22.0898 2.50558C25.2799 0.996169 29.6066 0.148193 34.118 0.148193ZM34.118 20.2697C52.9145 20.2697 68.1388 23.8715 68.1388 28.3183V32.3426H0.097168V28.3183C0.097168 23.8715 15.3215 20.2697 34.118 20.2697Z" fill="black"/>
</svg>
